<svg width="20" height="11" viewBox="0 0 20 11" fill="none" xmlns="http://www.w3.org/2000/svg">
<path d="M3.33333 3.33333C3.79357 3.33333 4.16667 3.70642 4.16667 4.16667V10C4.16667 10.4602 3.79357 10.8333 3.33333 10.8333C2.8731 10.8333 2.5 10.4602 2.5 10V4.16667C2.5 3.70642 2.8731 3.33333 3.33333 3.33333ZM5.83333 4.16667C6.29357 4.16667 6.66667 4.53975 6.66667 5V10C6.66667 10.4602 6.29357 10.8333 5.83333 10.8333C5.3731 10.8333 5 10.4602 5 10V5C5 4.53975 5.3731 4.16667 5.83333 4.16667ZM8.33333 0.833333C8.79358 0.833333 9.16667 1.20643 9.16667 1.66667V10C9.16667 10.4602 8.79358 10.8333 8.33333 10.8333C7.87309 10.8333 7.5 10.4602 7.5 10V1.66667C7.5 1.20643 7.87309 0.833333 8.33333 0.833333ZM12.5 0C15.1987 0 17.398 2.13797 17.4966 4.81258L17.4992 5.02942C18.913 5.23125 20 6.447 20 7.91667C20 9.47383 18.7797 10.7459 17.2433 10.829L17.0833 10.8333H14.1658C13.7057 10.8333 13.3325 10.4602 13.3325 10C13.3324 9.57267 13.6541 9.22042 14.0686 9.17225L14.1658 9.16667L17.0384 9.16725L17.1533 9.16475C17.8126 9.12917 18.3333 8.58125 18.3333 7.91667C18.3333 7.332 17.9285 6.8325 17.376 6.70075L17.2637 6.67933L15.7889 6.46883L15.8325 4.98L15.8292 4.83367C15.7452 3.12509 14.3749 1.75472 12.6663 1.67075L12.5 1.66667C12.2767 1.66667 12.0573 1.68843 11.8436 1.73096L11.6658 1.77167V10.0004C11.6658 10.4276 11.3443 10.7796 10.9301 10.8277L10.8329 10.8333C10.3729 10.8333 10 10.4604 9.99992 10.0004L9.99917 0.669375C10.7348 0.243667 11.5889 0 12.5 0ZM0.833333 5C1.29357 5 1.66667 5.37308 1.66667 5.83333V9.16667C1.66667 9.62692 1.29357 10 0.833333 10C0.373096 10 0 9.62692 0 9.16667V5.83333C0 5.37308 0.373096 5 0.833333 5Z" fill="#F2F2F2"/>
</svg>
