<svg width="932" height="247" viewBox="0 0 932 247" fill="none" xmlns="http://www.w3.org/2000/svg">
<path d="M59.0765 97.922C-7 -74.3648 -101.419 125.894 -107 153.866V248.369C-107 271.06 -9.55637 376.682 39.1655 426.656C163.911 437.854 439.046 459.464 541.619 456.327C644.191 453.19 827.815 403.346 906.806 378.817C917.415 326.881 937.065 211.273 930.79 164.322C922.946 105.634 885.839 -47.5576 781.758 77.5313C677.678 202.62 740.323 248.891 646.5 97.922C552.677 -53.0474 553.445 -22.7122 500.5 142.635C447.555 307.983 412.123 88.6353 389 52.1352C296.836 -93.3445 268.228 306.529 231 142.635C190 -37.8648 161.194 140.403 126.5 164.322C98.7452 183.458 78.5 135.635 59.0765 97.922Z" fill="url(#paint0_linear_166_315)" fill-opacity="0.04"/>
<defs>
<linearGradient id="paint0_linear_166_315" x1="412.5" y1="0" x2="412.5" y2="456.635" gradientUnits="userSpaceOnUse">
<stop stop-color="white"/>
<stop offset="1" stop-color="white" stop-opacity="0"/>
</linearGradient>
</defs>
</svg>
